PathFileType	4	(X/Y/Z)	pose_F01_0-96.trc
DataRate	CameraRate	NumFrames	NumMarkers	Units	OrigDataRate	OrigDataStartFrame	OrigNumFrames
30	30	10	21	m	30	0	96
Frame#	Time	CHip			RHip			RKnee			RAnkle			RBigToe			RSmallToe			RHeel			LHip			LKnee			LAnkle			LBigToe			LSmallToe			LHeel			Neck			Nose			RShoulder			RElbow			RWrist			LShoulder			LElbow			LWrist			
		X1	Y1	Z1	X2	Y2	Z2	X3	Y3	Z3	X4	Y4	Z4	X5	Y5	Z5	X6	Y6	Z6	X7	Y7	Z7	X8	Y8	Z8	X9	Y9	Z9	X10	Y10	Z10	X11	Y11	Z11	X12	Y12	Z12	X13	Y13	Z13	X14	Y14	Z14	X15	Y15	Z15	X16	Y16	Z16	X17	Y17	Z17	X18	Y18	Z18	X19	Y19	Z19	X20	Y20	Z20	X21	Y21	Z21	
0	0.0	-0.17331093529162112	1.8729504311999572	-0.5792762851697973	-0.1910210191956968	1.8701726742448361	-0.5168893524829677	-0.17145568351152407	1.722816498220847	-0.5023709077178349	-0.17870101170526356	1.5691550421810527	-0.4730771231413441							-0.18428840990000717	1.52578921810711	-0.45561181649847776	-0.16745991461428786	1.8665645017975423	-0.6073515821256519	-0.14754237198061723	1.7113066744432872	-0.6189373627284807	-0.16543000777942526	1.564960637448968	-0.5876343130329198	-0.20523339565103105	1.535548895406203	-0.6184566771301961	-0.1895002373834713	1.5469115130044446	-0.632739220091089	-0.16388635286038894	1.5495061554865006	-0.5757910338267982	-0.17307619619532427	2.0406539102128542	-0.5707274559854294	-0.20821029019358048	2.1113392858715003	-0.5953428556783951	-0.19185213245106986	2.0382175270489924	-0.4876843832209433	-0.18377303350417534	1.941634226745725	-0.46285939057337144	-0.2118809874840943	1.9017789668123564	-0.4313794173308396	-0.14765605447577687	2.042801483362881	-0.6370390139022482	-1.4802847699851633	1.87105404501212	0.7320008452761323	-0.13095832953297243	1.8827659275731903	-0.7053891075994221
1	0.03333333333333333	-0.17535784037832125	1.872779590707793	-0.5771294226771136	-0.19302267899618097	1.870193782856037	-0.5147011383564308	-0.17377911685399203	1.72262755670134	-0.4998159974801408	-0.17873792662375715	1.5693143817221777	-0.4730679473079321							-0.18223960410014375	1.5307279555776387	-0.45871330328853704	-0.1682191817717782	1.867911827808913	-0.61076099349711	-0.14982507978924206	1.712811779364206	-0.6166289679086098	-0.16468708467327778	1.5661523092221687	-0.5840732329227638	-0.20470861195236137	1.5352876036988499	-0.6141802497855973	-0.18893833682252942	1.545859728911115	-0.6287529911459584	-0.1626958004899271	1.5507313710852078	-0.5732038399985723	-0.1730954219546767	2.04072203022736	-0.5707887251806117	-0.2082099950495431	2.1112938376076276	-0.5953689891647356	-0.19186256370626287	2.03819514517288	-0.4876996667929586	-0.18562814175511638	1.9423625102660822	-0.4606628129102714	-0.21151312743716072	1.896148617005947	-0.43116680861436	-0.14843475638856587	2.04315615063711	-0.6400235552036886	-1.4802847699851633	1.87105404501212	0.7320008452761323	-0.13095832953297243	1.8827659275731903	-0.7053891075994221
2	0.06666666666666667	-0.17740474546502139	1.872608750215629	-0.57498256018443	-0.19502433879666514	1.870214891467238	-0.5125129242298939	-0.17610255019645998	1.7224386151818332	-0.4972610872424466	-0.17877484154225076	1.5694737212633025	-0.4730587714745201							-0.18019079830028034	1.5356666930481675	-0.4618147900785963	-0.16897844892926853	1.8692591538202838	-0.6141704048685681	-0.1521077875978669	1.7143168842851246	-0.6143205730887389	-0.1639441615671303	1.5673439809953695	-0.5805121528126078	-0.2041838282536917	1.5350263119914966	-0.6099038224409984	-0.18837643626158754	1.5448079448177852	-0.6247667622008278	-0.16150524811946526	1.551956586683915	-0.5706166461703464	-0.17311464771402912	2.0407901502418655	-0.5708499943757941	-0.20820969990550572	2.111248389343755	-0.5953951226510761	-0.19187299496145588	2.0381727632967674	-0.4877149503649739	-0.18748325000605742	1.9430907937864395	-0.45846623524717134	-0.21114526739022713	1.8905182671995375	-0.4309541998978804	-0.14921345830135488	2.043510817911339	-0.643008096505129	-1.4802847699851633	1.87105404501212	0.7320008452761323	-0.13095832953297243	1.8827659275731903	-0.7053891075994221
3	0.1	-0.17945165055172152	1.872437909723465	-0.5728356976917462	-0.1970259985971493	1.870236000078439	-0.510324710103357	-0.17842598353892794	1.7222496736623263	-0.49470617700475245	-0.17881175646074438	1.5696330608044273	-0.47304959564110804							-0.17814199250041693	1.5406054305186963	-0.4649162768686556	-0.16973771608675886	1.8706064798316546	-0.6175798162400262	-0.15439049540649172	1.7158219892060433	-0.612012178268868	-0.1632012384609828	1.5685356527685703	-0.5769510727024518	-0.203659044555022	1.5347650202841434	-0.6056273950963995	-0.18781453570064566	1.5437561607244554	-0.6207805332556973	-0.16031469574900342	1.553181802282622	-0.5680294523421204	-0.17313387347338155	2.040858270256371	-0.5709112635709764	-0.20820940476146835	2.111202941079882	-0.5954212561374166	-0.1918834262166489	2.038150381420655	-0.4877302339369892	-0.18933835825699846	1.9438190773067967	-0.4562696575840713	-0.21077740734329353	1.884887917393128	-0.4307415911814008	-0.14999216021414388	2.043865485185568	-0.6459926378065695	-1.4802847699851633	1.87105404501212	0.7320008452761323	-0.13095832953297243	1.8827659275731903	-0.7053891075994221
4	0.13333333333333333	-0.18149855563842165	1.8722670692313008	-0.5706888351990625	-0.19902765839763348	1.87025710868964	-0.5081364959768201	-0.1807494168813959	1.7220607321428194	-0.4921512667670583	-0.17884867137923796	1.5697924003455523	-0.47304041980769607							-0.17609318670055352	1.545544167989225	-0.4680177636587149	-0.1704969832442492	1.8719538058430254	-0.6209892276114843	-0.15667320321511655	1.717327094126962	-0.6097037834489971	-0.16245831535483532	1.569727324541771	-0.5733899925922958	-0.20313426085635233	1.5345037285767902	-0.6013509677518006	-0.18725263513970378	1.5427043766311257	-0.6167943043105667	-0.15912414337854158	1.5544070178813292	-0.5654422585138945	-0.17315309923273398	2.0409263902708767	-0.5709725327661588	-0.20820910961743097	2.1111574928160093	-0.5954473896237571	-0.1918938574718419	2.0381279995445425	-0.4877455175090045	-0.1911934665079395	1.944547360827154	-0.45407307992097123	-0.21040954729635994	1.8792575675867187	-0.4305289824649212	-0.1507708621269329	2.044220152459797	-0.6489771791080099	-1.4802847699851633	1.87105404501212	0.7320008452761323	-0.13095832953297243	1.8827659275731903	-0.7053891075994221
5	0.16666666666666666	-0.1835454607251218	1.8720962287391367	-0.5685419727063789	-0.20102931819811765	1.870278217300841	-0.5059482818502832	-0.18307285022386385	1.7218717906233125	-0.4895963565293641	-0.17888558629773155	1.5699517398866774	-0.4730312439742841							-0.1740443809006901	1.5504829054597538	-0.4711192504487742	-0.17125625040173953	1.8733011318543962	-0.6243986389829425	-0.15895591102374138	1.7188321990478808	-0.6073953886291262	-0.16171539224868783	1.570918996314972	-0.5698289124821398	-0.20260947715768265	1.534242436869437	-0.5970745404072018	-0.1866907345787619	1.541652592537796	-0.6128080753654361	-0.15793359100807974	1.5556322334800363	-0.5628550646856686	-0.1731723249920864	2.0409945102853824	-0.5710338019613411	-0.2082088144733936	2.1111120445521365	-0.5954735231100976	-0.1919042887270349	2.03810561766843	-0.4877608010810198	-0.19304857475888054	1.9452756443475112	-0.4518765022578712	-0.21004168724942635	1.8736272177803093	-0.4303163737484416	-0.1515495640397219	2.044574819734026	-0.6519617204094503	-1.4802847699851633	1.87105404501212	0.7320008452761323	-0.13095832953297243	1.8827659275731903	-0.7053891075994221
6	0.2	-0.18559236581182192	1.8719253882469726	-0.5663951102136952	-0.2030309779986018	1.870299325912042	-0.5037600677237463	-0.1853962835663318	1.7216828491038056	-0.48704144629166995	-0.17892250121622516	1.5701110794278021	-0.47302206814087205							-0.1719955751008267	1.5554216429302825	-0.47422073723883346	-0.17201551755922986	1.874648457865767	-0.6278080503544006	-0.1612386188323662	1.7203373039687995	-0.6050869938092553	-0.16097246914254035	1.5721106680881727	-0.5662678323719839	-0.20208469345901298	1.5339811451620837	-0.5927981130626029	-0.18612883401782002	1.5406008084444662	-0.6088218464203056	-0.1567430386376179	1.5568574490787435	-0.5602678708574427	-0.17319155075143883	2.041062630299888	-0.5710950711565235	-0.20820851932935622	2.1110665962882638	-0.5954996565964381	-0.19191471998222792	2.0380832357923175	-0.4877760846530351	-0.19490368300982158	1.9460039278678685	-0.44967992459477113	-0.20967382720249275	1.8679968679738999	-0.430103765031962	-0.1523282659525109	2.044929487008255	-0.6549462617108908	-1.4802847699851633	1.87105404501212	0.7320008452761323	-0.13095832953297243	1.8827659275731903	-0.7053891075994221
7	0.23333333333333334	-0.18763927089852206	1.8717545477548085	-0.5642482477210115	-0.20503263779908598	1.870320434523243	-0.5015718535972093	-0.18771971690879977	1.7214939075842988	-0.4844865360539758	-0.17895941613471877	1.570270418968927	-0.47301289230746							-0.16994676930096328	1.5603603804008113	-0.47732222402889274	-0.1727747847167202	1.8759957838771377	-0.6312174617258587	-0.16352132664099103	1.7218424088897182	-0.6027785989893845	-0.16022954603639286	1.5733023398613735	-0.5627067522618279	-0.2015599097603433	1.5337198534547305	-0.588521685718004	-0.18556693345687814	1.5395490243511365	-0.604835617475175	-0.15555248626715606	1.5580826646774506	-0.5576806770292168	-0.17321077651079125	2.0411307503143936	-0.5711563403517058	-0.20820822418531884	2.111021148024391	-0.5955257900827786	-0.19192515123742093	2.038060853916205	-0.4877913682250504	-0.19675879126076262	1.9467322113882257	-0.4474833469316711	-0.20930596715555916	1.8623665181674904	-0.4298911563154824	-0.1531069678652999	2.045284154282484	-0.6579308030123312	-1.4802847699851633	1.87105404501212	0.7320008452761323	-0.13095832953297243	1.8827659275731903	-0.7053891075994221
8	0.26666666666666666	-0.1877403648091445	1.8707244584414267	-0.5640958079968131	-0.20317849764904408	1.869213693206161	-0.5036205027879932	-0.18563913776768645	1.720464673861921	-0.48671888490219783	-0.17899633105321236	1.570429758510052	-0.47300371647404804							-0.17246839385592516	1.5578146043790468	-0.47387898599821254	-0.17224712439296924	1.8735280067780997	-0.6276951203160752	-0.16332644708239324	1.720656448484465	-0.6028098220849137	-0.16074806233468023	1.5733422120187337	-0.566662856467158	-0.200152786069611	1.5325794316970096	-0.5944496864254696	-0.18398455055537616	1.5407335537181532	-0.6110293025554183	-0.1586434227843227	1.5580816454338025	-0.5584487577202172	-0.1731499732857727	2.0411955556039945	-0.5712121121723365	-0.20819163120624995	2.1110747379369426	-0.5954971071195208	-0.19174420114143964	2.039285505147414	-0.4878350355544895	-0.19258346969811252	1.94688920872218	-0.4516160529556866	-0.20893810710862556	1.856736168361081	-0.4296785475990028	-0.15307703782954238	2.045380615341322	-0.6578935499566564	-1.4802847699851633	1.87105404501212	0.7320008452761323	-0.13095832953297243	1.8827659275731903	-0.7053891075994221
9	0.3	-0.18761078267569664	1.8719925586134127	-0.5642318106948557	-0.2049797341168097	1.8703940432911108	-0.5017022222153789	-0.18867489044031768	1.7216775933931416	-0.48783750690471755	-0.18207336901809348	1.5706630766534921	-0.474117007402671							-0.1724631830814607	1.5574281587788368	-0.4738847553937584	-0.17121615455568734	1.8748378793457485	-0.6246364275993324	-0.16360966963322568	1.721929736180481	-0.6027560431290754	-0.16277559220316018	1.575974837876483	-0.5648377505866305	-0.2009812931427625	1.5342555309113057	-0.5983398140725029	-0.18466250254561026	1.5419767118537149	-0.6149519881205565	-0.1584843135105355	1.559988711860335	-0.5590865443755557	-0.17318748213685048	2.0411244529973773	-0.5711674213949364	-0.20816549284879665	2.111064108549033	-0.5955281070426331	-0.1919295016833084	2.0380320941063466	-0.48783733889557945	-0.19684481387656827	1.9436688275307856	-0.44699741077894306	-0.20912566088367987	1.8588357555182786	-0.42960231732813087	-0.1530751953906948	2.0451704410467326	-0.6578872190971173	-1.4802847699851633	1.87105404501212	0.7320008452761323	-0.13095832953297243	1.8827659275731903	-0.7053891075994221
